<svg width="24" height="24" viewBox="0 0 24 24" fill="none" xmlns="http://www.w3.org/2000/svg">
<path d="M3.0816 0.0018158H20.9198C22.6146 0.0018158 24 1.38774 24 3.08246V20.9207C24 22.6149 22.6146 23.9999 20.9198 23.9999H3.0816C1.38688 23.9999 0 22.6149 0 20.9207V3.08246C0 1.38774 1.38688 0.0018158 3.0816 0.0018158ZM17.4837 2.66718C16.8886 2.66718 16.4033 3.15446 16.4033 3.74918V6.33429C16.4033 6.92926 16.8886 7.41541 17.4837 7.41541H20.1959C20.79 7.41541 21.2764 6.92926 21.2764 6.33429V3.74918C21.2764 3.15446 20.79 2.66718 20.1959 2.66718H17.4837ZM21.2867 10.1503H19.175C19.3753 10.8043 19.4838 11.494 19.4838 12.211C19.4838 16.2016 16.1426 19.4382 12.0226 19.4382C7.9036 19.4382 4.56224 16.2016 4.56224 12.211C4.56224 11.494 4.67184 10.8043 4.87112 10.1503H2.668V20.2889C2.668 20.8139 3.09672 21.241 3.62128 21.241H20.3338C20.8589 21.241 21.2867 20.8139 21.2867 20.2889V10.1503ZM12.0226 7.27909C9.36184 7.27909 7.20344 9.36934 7.20344 11.9501C7.20344 14.5283 9.36184 16.6201 12.0226 16.6201C14.6849 16.6201 16.8434 14.5283 16.8434 11.9501C16.8434 9.36926 14.6849 7.27909 12.0226 7.27909Z" fill="white"/>
</svg>
