<svg width="32" height="32" viewBox="0 0 32 32" fill="none" xmlns="http://www.w3.org/2000/svg">
<g filter="url(#filter0_d_187_50)">
<path d="M28 12C28 15.1826 26.7357 18.2348 24.4853 20.4853C22.2348 22.7357 19.1826 24 16 24C12.8174 24 9.76516 22.7357 7.51472 20.4853C5.26428 18.2348 4 15.1826 4 12C4 8.8174 5.26428 5.76516 7.51472 3.51472C9.76516 1.26428 12.8174 0 16 0C19.1826 0 22.2348 1.26428 24.4853 3.51472C26.7357 5.76516 28 8.8174 28 12ZM16.4305 8.859C15.2635 9.345 12.9295 10.35 9.4315 11.874C8.8645 12.099 8.566 12.321 8.539 12.537C8.494 12.9015 8.9515 13.0455 9.574 13.242L9.8365 13.3245C10.4485 13.524 11.2735 13.7565 11.701 13.7655C12.091 13.7745 12.5245 13.6155 13.003 13.2855C16.2715 11.079 17.959 9.9645 18.064 9.9405C18.139 9.9225 18.244 9.9015 18.313 9.9645C18.3835 10.026 18.376 10.1445 18.3685 10.176C18.3235 10.3695 16.528 12.0375 15.5995 12.9015C15.31 13.1715 15.1045 13.362 15.0625 13.4055C14.97 13.5 14.876 13.593 14.7805 13.6845C14.2105 14.2335 13.7845 14.6445 14.803 15.3165C15.2935 15.6405 15.6865 15.906 16.078 16.173C16.504 16.464 16.93 16.7535 17.482 17.1165C17.6215 17.2065 17.7565 17.304 17.887 17.397C18.3835 17.751 18.832 18.069 19.3825 18.018C19.7035 17.988 20.035 17.688 20.203 16.788C20.6005 14.6625 21.382 10.059 21.562 8.1615C21.573 8.00376 21.5664 7.84529 21.5425 7.689C21.5284 7.56288 21.4673 7.44669 21.3715 7.3635C21.235 7.26928 21.0723 7.22047 20.9065 7.224C20.4565 7.2315 19.762 7.473 16.4305 8.859Z" fill="white"/>
</g>
<defs>
<filter id="filter0_d_187_50" x="0" y="0" width="32" height="32" filterUnits="userSpaceOnUse" color-interpolation-filters="sRGB">
<feFlood flood-opacity="0" result="BackgroundImageFix"/>
<feColorMatrix in="SourceAlpha" type="matrix" values="0 0 0 0 0 0 0 0 0 0 0 0 0 0 0 0 0 0 127 0" result="hardAlpha"/>
<feOffset dy="4"/>
<feGaussianBlur stdDeviation="2"/>
<feComposite in2="hardAlpha" operator="out"/>
<feColorMatrix type="matrix" values="0 0 0 0 0 0 0 0 0 0 0 0 0 0 0 0 0 0 0.25 0"/>
<feBlend mode="normal" in2="BackgroundImageFix" result="effect1_dropShadow_187_50"/>
<feBlend mode="normal" in="SourceGraphic" in2="effect1_dropShadow_187_50" result="shape"/>
</filter>
</defs>
</svg>
